HIERARCHY
ROOT hip
{
	OFFSET 0.000000 0.000000 0.000000
	CHANNELS 6 Xposition Yposition Zposition Xrotation Zrotation Yrotation 
	JOINT abdomen
	{
		OFFSET 0.000000 3.422050 0.000000
		CHANNELS 3 Xrotation Zrotation Yrotation 
		JOINT chest
		{
			OFFSET 0.000000 8.486693 -0.684411
			CHANNELS 3 Xrotation Zrotation Yrotation 
			JOINT neck
			{
				OFFSET 0.000000 10.266162 -0.273764
				CHANNELS 3 Xrotation Zrotation Yrotation 
				JOINT head
				{
					OFFSET 0.000000 3.148285 0.000000
					CHANNELS 3 Xrotation Zrotation Yrotation 
					End Site
					{
						OFFSET 0.000000 3.148289 0.000000
					}
				}
			}
			JOINT lCollar
			{
				OFFSET 3.422053 6.707223 -0.821293
				CHANNELS 3 Yrotation Zrotation Xrotation 
				JOINT lShldr
				{
					OFFSET 3.285171 0.000000 0.000000
					CHANNELS 3 Zrotation Yrotation Xrotation 
					JOINT lForeArm
					{
						OFFSET 10.129278 0.000000 0.000000
						CHANNELS 3 Yrotation Zrotation Xrotation 
						JOINT lHand
						{
							OFFSET 8.486692 0.000000 0.000000
							CHANNELS 3 Zrotation Yrotation Xrotation 
							End Site
							{
								OFFSET 4.106464 0.000000 0.000000
							}
						}
					}
				}
			}
			JOINT rCollar
			{
				OFFSET -3.558935 6.707223 -0.821293
				CHANNELS 3 Yrotation Zrotation Xrotation 
				JOINT rShldr
				{
					OFFSET -3.148289 0.000000 0.000000
					CHANNELS 3 Zrotation Yrotation Xrotation 
					JOINT rForeArm
					{
						OFFSET -10.266159 0.000000 0.000000
						CHANNELS 3 Yrotation Zrotation Xrotation 
						JOINT rHand
						{
							OFFSET -8.349810 0.000000 0.000000
							CHANNELS 3 Zrotation Yrotation Xrotation 
							End Site
							{
								OFFSET -4.106464 0.000000 0.000000
							}
						}
					}
				}
			}
		}
	}
	JOINT lThigh
	{
		OFFSET 5.338403 -1.642589 1.368821
		CHANNELS 3 Xrotation Zrotation Yrotation 
		JOINT lShin
		{
			OFFSET -2.053232 -20.121670 0.000000
			CHANNELS 3 Xrotation Zrotation Yrotation 
			JOINT lFoot
			{
				OFFSET 0.000000 -19.300380 -1.231939
				CHANNELS 3 Xrotation Yrotation Zrotation 
				End Site
				{
					OFFSET 0.000000 -2.463878 4.653993
				}
			}
		}
	}
	JOINT rThigh
	{
		OFFSET -5.338403 -1.642589 1.368821
		CHANNELS 3 Xrotation Zrotation Yrotation 
		JOINT rShin
		{
			OFFSET 2.053232 -20.121670 0.000000
			CHANNELS 3 Xrotation Zrotation Yrotation 
			JOINT rFoot
			{
				OFFSET 0.000000 -19.300380 -1.231939
				CHANNELS 3 Xrotation Yrotation Zrotation 
				End Site
				{
					OFFSET 0.000000 -2.463878 4.653993
				}
			}
		}
	}
}
MOTION
Frames: 14
Frame Time: 0.033264
-3.144903 15.267221 -5.309703 -17.841351 0.000000 0.000000 3.172090 -1.111190 -0.938083 25.463808 -1.432478 16.163940 -28.501648 -15.003175 -13.000421 5.595908 -12.922038 -6.900593 -73.635727 8.345399 24.083466 -33.071030 -11.594225 -15.977213 -69.427399 14.082496 -58.740421 -23.533689 9.132754 30.377857 8.802118 -7.293587 -27.090128 75.979523 20.053583 5.798611 40.131264 -14.160386 4.872666 67.150940 -14.100768 2.771861 -117.995140 63.202808 -30.512306 125.114029 11.523615 10.845149 -16.538290 -26.077223 -20.889309 -88.200798 -56.542545 -1.710975 135.264801 -10.803030 -12.826303 -36.095146 11.524467 18.754040 
-3.144903 15.233129 -5.306248 -17.010870 0.000000 0.000000 2.620423 -1.111200 -0.938102 24.607843 -1.432512 16.163990 -28.514582 -15.003172 -13.000419 5.999943 -13.000238 -7.001585 -73.571777 7.958436 24.297401 -33.224770 -11.636273 -15.925379 -69.579483 14.028282 -58.703354 -23.533689 9.132754 30.377861 8.687754 -7.064663 -26.583244 76.163994 20.033251 5.877764 40.124474 -14.172248 4.871011 67.159943 -14.092402 2.760139 -118.404831 62.618034 -30.399792 125.114029 11.523615 10.845149 -16.545734 -25.647383 -21.329403 -89.316124 -56.003628 -1.306543 135.290436 -10.797492 -12.831703 -35.980904 11.091583 18.984148 
-3.144903 15.199036 -5.302794 -16.180655 0.000000 0.000000 2.068830 -1.111210 -0.938121 23.752165 -1.432544 16.164036 -28.527515 -15.003168 -13.000418 5.471183 -13.000272 -7.001576 -73.506447 7.571743 24.511555 -33.378563 -11.678185 -15.873423 -69.731499 13.973970 -58.666443 -23.533689 9.132754 30.377861 8.571426 -6.836786 -26.076216 76.348412 20.012680 5.956835 40.117695 -14.184112 4.869355 67.168945 -14.084037 2.748420 -118.808983 62.033836 -30.280582 125.114029 11.523615 10.845149 -16.549501 -25.217573 -21.767797 -90.408913 -55.460735 -0.926422 135.316055 -10.791950 -12.837099 -35.865063 10.659204 19.214771 
-3.144903 15.164944 -5.299340 -15.350783 0.000000 0.000000 1.517342 -1.111220 -0.938139 22.896870 -1.432575 16.164085 -28.540445 -15.003160 -13.000415 4.941045 -13.000306 -7.001568 -73.439720 7.185346 24.725933 -33.532429 -11.719961 -15.821348 -69.883430 13.919564 -58.629688 -23.533689 9.132754 30.377861 8.453153 -6.609987 -25.569067 76.532784 19.991873 6.035825 40.110909 -14.195973 4.867696 67.177956 -14.075671 2.736704 -119.207932 61.450230 -30.155029 125.114029 11.523615 10.845149 -16.549633 -24.787855 -22.204533 -91.479958 -54.914204 -0.569734 135.341675 -10.786406 -12.842492 -35.747631 10.227355 19.445917 
-3.144903 15.130851 -5.295886 -14.521353 0.000000 0.000000 0.965981 -1.111230 -0.938158 22.042053 -1.432606 16.164137 -28.553381 -15.003156 -13.000414 4.409546 -13.000343 -7.001559 -73.371597 6.799257 24.940557 -33.686340 -11.761596 -15.769148 -70.035286 13.865065 -58.593086 -23.533689 9.132754 30.377861 8.332947 -6.384295 -25.061811 76.717072 19.970823 6.114728 40.104126 -14.207836 4.866036 67.186974 -14.067303 2.724987 -119.601997 60.867313 -30.023491 125.114029 11.523615 10.845149 -16.546171 -24.358273 -22.639645 -92.530006 -54.364384 -0.235655 135.367294 -10.780858 -12.847882 -35.628628 9.796065 19.677620 
-3.144903 15.096758 -5.292431 -13.692438 0.000000 0.000000 0.414771 -1.111240 -0.938176 21.187799 -1.432636 16.164185 -28.566317 -15.003153 -13.000414 3.876703 -13.000373 -7.001548 -73.302086 6.413498 25.155437 -33.840324 -11.803097 -15.716829 -70.187073 13.810476 -58.556648 -23.533689 9.132754 30.377861 8.210826 -6.159736 -24.554447 76.901299 19.949535 6.193546 40.097332 -14.219696 4.864375 67.195961 -14.058928 2.713274 -119.991524 60.285164 -29.886295 125.114029 11.523615 10.845149 -16.539154 -23.928867 -23.073177 -93.559929 -53.811642 0.076642 135.392914 -10.775310 -12.853273 -35.508015 9.365355 19.909866 
-3.144903 15.062665 -5.288977 -12.864135 0.000000 0.000000 -0.136257 -1.111251 -0.938195 20.334223 -1.432665 16.164234 -28.579245 -15.003146 -13.000411 3.342535 -13.000410 -7.001539 -73.231201 6.028085 25.370586 -33.994366 -11.844458 -15.664393 -70.338791 13.755798 -58.520370 -23.533689 9.132754 30.377861 8.086808 -5.936345 -24.047007 77.085464 19.928011 6.272278 40.090549 -14.231560 4.862712 67.204971 -14.050558 2.701563 -120.376755 59.703854 -29.743740 125.114029 11.523615 10.845149 -16.528625 -23.499702 -23.505167 -94.570358 -53.256279 0.367927 135.418549 -10.769760 -12.858661 -35.385830 8.935253 20.142693 
-3.144903 15.028572 -5.285522 -12.036525 0.000000 0.000000 -0.687084 -1.111261 -0.938213 19.481401 -1.432694 16.164286 -28.592180 -15.003140 -13.000409 2.807059 -13.000442 -7.001527 -73.158920 5.643032 25.586008 -34.148449 -11.885675 -15.611830 -70.490425 13.701019 -58.484245 -23.533689 9.132754 30.377861 7.960906 -5.714143 -23.539478 77.269600 19.906256 6.350925 40.083752 -14.243416 4.861046 67.213951 -14.042180 2.689853 -120.757996 59.123470 -29.596107 125.114029 11.523615 10.845149 -16.514620 -23.070810 -23.935663 -95.562050 -52.698627 0.638972 135.444168 -10.764203 -12.864040 -35.262062 8.505783 20.376102 
-3.144903 14.994479 -5.282068 -11.209696 0.000000 0.000000 -1.237679 -1.111272 -0.938231 18.629433 -1.432721 16.164339 -28.605120 -15.003140 -13.000409 2.270296 -13.000480 -7.001518 -73.085251 5.258362 25.801725 -34.302601 -11.926756 -15.559153 -70.641991 13.646158 -58.448280 -23.533689 9.132754 30.377861 7.833138 -5.493162 -23.031893 77.453629 19.884256 6.429478 40.076973 -14.255282 4.859382 67.222954 -14.033806 2.678145 -121.135445 58.544067 -29.443659 125.114029 11.523615 10.845149 -16.497179 -22.642256 -24.364695 -96.535698 -52.138966 0.890535 135.469788 -10.758649 -12.869422 -35.136703 8.076972 20.610107 
-3.144903 14.960386 -5.278614 -10.383729 0.000000 0.000000 -1.788020 -1.111283 -0.938249 17.778410 -1.432748 16.164391 -28.618053 -15.003136 -13.000406 1.732262 -13.000511 -7.001506 -73.010193 4.874092 26.017736 -34.456814 -11.967699 -15.506358 -70.793465 13.591200 -58.412476 -23.533689 9.132754 30.377861 7.703525 -5.273430 -22.524263 77.637611 19.862024 6.507945 40.070175 -14.267141 4.857713 67.231941 -14.025426 2.666437 -121.509338 57.965748 -29.286646 125.114029 11.523615 10.845149 -16.476337 -22.214075 -24.792295 -97.491943 -51.577618 1.123317 135.495407 -10.753092 -12.874799 -35.009773 7.648843 20.844728 
-3.144903 14.926293 -5.275160 -9.558711 0.000000 0.000000 -2.338083 -1.111294 -0.938267 16.928425 -1.432774 16.164444 -28.630989 -15.003131 -13.000406 1.192978 -13.000545 -7.001494 -72.933762 4.490233 26.234062 -34.611061 -12.008493 -15.453438 -70.944870 13.536154 -58.376827 -23.533689 9.132754 30.377857 7.572080 -5.054971 -22.016592 77.821526 19.839554 6.586319 40.063385 -14.279002 4.856044 67.240929 -14.017044 2.654732 -121.879875 57.388535 -29.125265 125.114029 11.523615 10.845149 -16.452131 -21.786312 -25.218512 -98.431450 -51.014851 1.338017 135.521027 -10.747532 -12.880176 -34.881233 7.221418 21.079960 
-3.144903 14.892200 -5.271705 -8.734725 0.000000 0.000000 -2.887839 -1.111305 -0.938285 16.079569 -1.432799 16.164495 -28.643917 -15.003122 -13.000403 0.652464 -13.000582 -7.001483 -72.855934 4.106812 26.450714 -34.765385 -12.049153 -15.400405 -71.096199 13.481021 -58.341347 -23.533689 9.132754 30.377861 7.438823 -4.837815 -21.508894 78.005386 19.816856 6.664603 40.056599 -14.290862 4.854373 67.249924 -14.008665 2.643030 -122.247299 56.812546 -28.959766 125.114029 11.523615 10.845149 -16.424601 -21.359024 -25.643372 -99.354836 -50.450954 1.535306 135.546631 -10.741968 -12.885548 -34.751125 6.794731 21.315840 
-3.144903 14.858108 -5.268251 -7.911854 0.000000 0.000000 -3.437267 -1.111317 -0.938303 15.231932 -1.432823 16.164547 -28.656851 -15.003119 -13.000402 0.110740 -13.000614 -7.001470 -72.776733 3.723836 26.667702 -34.919758 -12.089671 -15.347258 -71.247452 13.425796 -58.306019 -23.533689 9.132754 30.377861 7.303775 -4.621987 -21.001194 78.189133 19.793915 6.742789 40.049797 -14.302721 4.852701 67.258904 -14.000279 2.631329 -122.611717 56.237793 -28.790306 125.114029 11.523615 10.845149 -16.393784 -20.932253 -26.066919 -100.262665 -49.886177 1.715825 135.572250 -10.736403 -12.890918 -34.619423 6.368798 21.552361 
-3.144903 14.824015 -5.264797 -7.090183 0.000000 0.000000 -3.986338 -1.111329 -0.938320 14.385603 -1.432847 16.164598 -28.669785 -15.003115 -13.000402 -0.432176 -13.000648 -7.001458 -72.696144 3.341328 26.885033 -35.074173 -12.130043 -15.293991 -71.398628 13.370490 -58.270859 -23.533689 9.132754 30.377861 7.166950 -4.407513 -20.493494 78.372826 19.770742 6.820882 40.043007 -14.314580 4.851027 67.267899 -13.991895 2.619630 -122.973320 55.664410 -28.617098 125.114029 11.523615 10.845149 -16.359716 -20.506048 -26.489185 -101.155518 -49.320778 1.880203 135.597855 -10.730835 -12.896285 -34.486141 5.943649 21.789547 
